<svg xmlns="http://www.w3.org/2000/svg" xmlns:xlink="http://www.w3.org/1999/xlink" width="46" height="54" viewBox="0 0 46 54">
    <defs>
        <filter id="prefix__a" width="136.8%" height="130.1%" x="-18.4%" y="-10.8%" filterUnits="objectBoundingBox">
            <feOffset dy="2" in="SourceAlpha" result="shadowOffsetOuter1"/>
            <feGaussianBlur in="shadowOffsetOuter1" result="shadowBlurOuter1" stdDeviation="2"/>
            <feColorMatrix in="shadowBlurOuter1" values="0 0 0 0 0.372678895 0 0 0 0 0.356317382 0 0 0 0 0.356317382 0 0 0 0.25 0"/>
        </filter>
        <path id="prefix__b" d="M19 2l17.347 3.855A2.11 2.11 0 0138 7.915V29c0 4.235-2.117 8.19-5.64 10.539L19 48.444 5.64 39.538A12.667 12.667 0 010 29V7.915c0-.989.687-1.845 1.653-2.06L19 2zm0 12.667a4.222 4.222 0 00-2.111 7.878v9.01h4.222l.002-9.01A4.222 4.222 0 0019 14.667z"/>
    </defs>
    <g fill="none" fill-rule="evenodd">
        <path d="M0.9 0L35.1 0 35.1 34.2 0.9 34.2z" transform="translate(4)"/>
        <g fill-rule="nonzero" transform="translate(4)">
            <use fill="#000" filter="url(#prefix__a)" xlink:href="#prefix__b"/>
            <use fill="#FFF" xlink:href="#prefix__b"/>
        </g>
    </g>
</svg>
